<?xml version="1.0" encoding="UTF-8" standalone="no"?>
<!-- Created with Inkscape (http://www.inkscape.org/) -->

<svg
   width="20"
   height="120"
   viewBox="0 0 87.803576 110.43397"
   version="1.1"
   id="svg1"
   xmlSpace="preserve"
   xmlns="http://www.w3.org/2000/svg"
   xmlnsSvg="http://www.w3.org/2000/svg"><defs
     id="defs1" /><g
     id="layer1"
     transform="translate(-126.44087,-3.8504174)"><path
       style="fill:#42a1e2;fill-opacity:1;fill-rule:evenodd;stroke:none;stroke-width:0.525;stroke-dasharray:none"
       d="m 174.91002,9.7081008 c -0.0305,-3.609392 -3.07553,-7.666269 -7.03048,-4.994294 -1.09323,0.738588 -3.10557,3.411643 -1.56381,4.634647 1.59557,1.2657032 6.5953,0.359647 8.59429,0.359647 M 148.13634,59.747718 c 7.35764,-1.675452 14.54521,-4.08033 22.19397,-4.08033 7.64498,0 14.84461,2.391479 22.19397,4.08033 -0.0246,-8.867792 -1.04796,-18.186152 -2.49426,-26.944411 -0.67859,-4.109297 -1.08845,-8.609826 -3.30594,-12.247458 -7.71667,-12.6586722 -25.04634,-12.7196172 -32.72937,0 -2.35489,3.898649 -2.85181,8.875768 -3.48778,13.297244 -1.22996,8.550988 -1.99811,17.277467 -2.37059,25.894625 m 11.27313,-47.590126 c -7.57499,2.55213 -15.80519,4.05036 -21.82755,9.830633 -2.84027,2.726086 -4.09179,6.48466 -5.29815,10.115232 -2.66424,8.018118 -3.64884,16.506974 -4.68028,24.84484 -0.46611,3.767836 -1.77686,8.657882 -0.25198,12.247458 4.15486,-2.484441 8.54015,-4.620111 13.03455,-6.437474 1.56788,-0.633991 4.9425,-1.196344 5.97934,-2.556418 1.66096,-2.178773 0.96162,-8.284874 1.08023,-10.951968 0.35092,-7.890847 1.19245,-16.511193 3.30648,-24.14499 0.93564,-3.378567 2.5656,-6.104432 4.88416,-8.748182 1.12284,-1.280333 3.34691,-2.558769 3.7732,-4.199131 m 21.4894,0 c 2.54579,3.136179 5.76081,5.391798 7.65405,9.098112 2.22011,4.346189 2.64661,9.58534 3.31273,14.347024 1.13769,8.132609 2.06778,16.637515 2.06778,24.84484 l 19.72798,8.398257 c 0.96009,-4.005643 -0.0303,-8.912011 -0.60916,-12.947313 -1.45092,-10.114445 -1.83914,-25.378543 -9.28772,-33.237973 -5.86804,-6.191709 -14.89967,-8.454865 -22.86566,-10.502947 m -15.85283,45.289407 c -9.10521,1.231123 -18.03755,3.688472 -26.4214,7.442704 -2.82356,1.264377 -6.29132,2.403248 -8.75495,4.294173 -1.35226,1.037911 -1.10894,2.688273 -1.10904,4.211005 -2.1e-4,3.178193 -1.38394,9.883663 2.81855,10.884743 1.97475,0.47041 3.75353,-1.00711 5.28401,-2.01992 3.07184,-2.03281 6.20646,-3.98697 9.5117,-5.62853 9.19116,-4.56482 19.70754,-6.956705 29.94425,-5.586959 8.06392,1.079007 15.5308,4.026928 22.54626,8.048869 2.70063,1.54827 6.87361,5.91954 10.21628,5.21462 4.34482,-0.91626 3.17057,-7.37042 3.17057,-10.562892 0,-1.798818 0.31629,-3.561464 -1.4298,-4.620339 C 198.24873,61.499466 179.91208,55.43694 165.04604,57.446999 m 22.89854,19.797085 3.17057,1.74964 -3.17057,-1.74964 m -53.19508,8.57808 c -1.92858,0.12035 -4.85857,-0.34893 -6.62683,0.42985 -2.25785,0.99441 -1.87871,6.31842 -0.96253,8.13851 1.08592,2.1573 3.71809,3.33508 4.55851,5.59884 2.03369,5.477996 1.00803,10.593676 7.96284,13.052346 6.94442,2.455 19.60147,1.51388 23.91735,-5.00402 2.3554,-3.55716 1.44395,-13.636356 6.73147,-13.636356 5.29267,0 4.64853,10.777186 7.36374,14.334866 4.53021,5.93582 14.70947,5.91667 21.52365,4.78639 4.26601,-0.70761 8.04924,-4.11037 9.07516,-8.28432 0.42832,-1.74259 3.7e-4,-4.01301 0.79862,-5.598836 1.04309,-2.0722 3.45947,-3.16816 4.50686,-5.24891 0.88988,-1.76784 1.12338,-7.2177 -1.03211,-8.13851 -3.07214,-1.31239 -8.97266,-0.40171 -12.29167,-0.27324 -7.34458,0.28427 -14.90476,-0.83513 -22.19397,0.0783 -2.1529,0.26977 -3.57462,2.20389 -5.63656,2.4233 -4.21679,0.4487 -6.38133,-2.1429 -10.21628,-2.45544 -8.92941,-0.72772 -18.5489,-0.75998 -27.47825,-0.20277 m -2.82209,3.5603 c 2.63709,0 2.59388,4.14837 0,4.14837 -2.64734,0 -2.68975,-4.14837 0,-4.14837 m 76.802,-0.009 c 2.50665,-0.23621 2.72422,3.72235 0.34685,4.12759 -2.78119,0.47406 -3.08058,-3.86997 -0.34685,-4.12759 m -66.58192,1.61926 c 4.10828,-0.53844 8.53979,-0.10788 12.68227,-0.10126 1.78591,0.003 4.133,-0.0628 5.55611,1.20125 1.68571,1.49736 1.16663,4.20351 0.78475,6.14722 -0.83675,4.259026 -1.84847,9.284376 -7.04543,10.073376 -4.03717,0.61292 -12.4859,1.27542 -15.36165,-2.06177 -3.57331,-4.14667 -2.90065,-14.435146 3.38395,-15.258816 m 41.21738,0 c 4.10827,-0.53844 8.53979,-0.10788 12.68227,-0.10126 2.04583,0.003 4.34926,0.0306 5.95188,1.47963 3.89701,3.52362 2.09709,14.826486 -3.48589,15.897666 -4.74358,0.91012 -13.34149,1.20818 -16.63161,-2.78161 -3.05688,-3.70693 -4.85467,-13.663766 1.48335,-14.494426 z"
       id="path2" /></g></svg>
